<svg xmlns="http://www.w3.org/2000/svg" viewBox="0 0 1280 640" fill="none">
  <defs>
    <linearGradient id="bg" x1="0%" y1="0%" x2="100%" y2="100%">
      <stop offset="0%" style="stop-color:#1a1a2e"/>
      <stop offset="50%" style="stop-color:#16213e"/>
      <stop offset="100%" style="stop-color:#0f3460"/>
    </linearGradient>
    <linearGradient id="accent" x1="0%" y1="0%" x2="100%" y2="0%">
      <stop offset="0%" style="stop-color:#e94560"/>
      <stop offset="100%" style="stop-color:#ff6b6b"/>
    </linearGradient>
    <linearGradient id="accentGlow" x1="0%" y1="0%" x2="100%" y2="0%">
      <stop offset="0%" style="stop-color:#e94560;stop-opacity:0.3"/>
      <stop offset="100%" style="stop-color:#ff6b6b;stop-opacity:0"/>
    </linearGradient>
  </defs>

  <!-- Background -->
  <rect width="1280" height="640" fill="url(#bg)"/>

  <!-- Subtle grid pattern -->
  <g opacity="0.04" stroke="#ffffff" stroke-width="1">
    <line x1="0" y1="80" x2="1280" y2="80"/>
    <line x1="0" y1="160" x2="1280" y2="160"/>
    <line x1="0" y1="240" x2="1280" y2="240"/>
    <line x1="0" y1="320" x2="1280" y2="320"/>
    <line x1="0" y1="400" x2="1280" y2="400"/>
    <line x1="0" y1="480" x2="1280" y2="480"/>
    <line x1="0" y1="560" x2="1280" y2="560"/>
    <line x1="160" y1="0" x2="160" y2="640"/>
    <line x1="320" y1="0" x2="320" y2="640"/>
    <line x1="480" y1="0" x2="480" y2="640"/>
    <line x1="640" y1="0" x2="640" y2="640"/>
    <line x1="800" y1="0" x2="800" y2="640"/>
    <line x1="960" y1="0" x2="960" y2="640"/>
    <line x1="1120" y1="0" x2="1120" y2="640"/>
  </g>

  <!-- Decorative invoice icon -->
  <g transform="translate(140, 180)" opacity="0.08">
    <rect x="0" y="0" width="200" height="280" rx="8" fill="#ffffff"/>
    <rect x="20" y="30" width="120" height="8" rx="4" fill="#1a1a2e"/>
    <rect x="20" y="55" width="80" height="6" rx="3" fill="#1a1a2e"/>
    <rect x="20" y="80" width="160" height="1" fill="#1a1a2e"/>
    <rect x="20" y="100" width="100" height="6" rx="3" fill="#1a1a2e"/>
    <rect x="140" y="100" width="40" height="6" rx="3" fill="#1a1a2e"/>
    <rect x="20" y="120" width="100" height="6" rx="3" fill="#1a1a2e"/>
    <rect x="140" y="120" width="40" height="6" rx="3" fill="#1a1a2e"/>
    <rect x="20" y="140" width="100" height="6" rx="3" fill="#1a1a2e"/>
    <rect x="140" y="140" width="40" height="6" rx="3" fill="#1a1a2e"/>
    <rect x="20" y="170" width="160" height="1" fill="#1a1a2e"/>
    <rect x="100" y="190" width="80" height="8" rx="4" fill="#1a1a2e"/>
    <rect x="20" y="230" width="60" height="6" rx="3" fill="#1a1a2e"/>
    <rect x="20" y="250" width="90" height="6" rx="3" fill="#1a1a2e"/>
  </g>

  <!-- Decorative receipt icon -->
  <g transform="translate(960, 200)" opacity="0.06">
    <rect x="0" y="0" width="180" height="240" rx="8" fill="#ffffff"/>
    <rect x="50" y="20" width="80" height="8" rx="4" fill="#1a1a2e"/>
    <rect x="20" y="50" width="140" height="1" fill="#1a1a2e"/>
    <rect x="20" y="70" width="90" height="6" rx="3" fill="#1a1a2e"/>
    <rect x="130" y="70" width="30" height="6" rx="3" fill="#1a1a2e"/>
    <rect x="20" y="90" width="90" height="6" rx="3" fill="#1a1a2e"/>
    <rect x="130" y="90" width="30" height="6" rx="3" fill="#1a1a2e"/>
    <rect x="20" y="120" width="140" height="1" fill="#1a1a2e"/>
    <rect x="90" y="140" width="70" height="8" rx="4" fill="#1a1a2e"/>
    <path d="M0,240 L15,225 L30,240 L45,225 L60,240 L75,225 L90,240 L105,225 L120,240 L135,225 L150,240 L165,225 L180,240" fill="#ffffff" stroke="none"/>
  </g>

  <!-- Accent line -->
  <rect x="440" y="200" width="80" height="4" rx="2" fill="url(#accent)"/>

  <!-- Package name -->
  <text x="640" y="270" text-anchor="middle" font-family="system-ui, -apple-system, 'Segoe UI', sans-serif" font-size="72" font-weight="700" fill="#ffffff" letter-spacing="-2">
    netipar/szamlazzhu
  </text>

  <!-- Tagline -->
  <text x="640" y="330" text-anchor="middle" font-family="system-ui, -apple-system, 'Segoe UI', sans-serif" font-size="24" fill="#8899aa" letter-spacing="1">
    Modern Laravel package for the szamlazz.hu invoicing API
  </text>

  <!-- Feature pills -->
  <g transform="translate(640, 380)" text-anchor="middle" font-family="system-ui, -apple-system, 'Segoe UI', sans-serif" font-size="14" font-weight="500">
    <!-- Invoices -->
    <rect x="-340" y="-16" width="100" height="32" rx="16" fill="#e94560" fill-opacity="0.15" stroke="#e94560" stroke-opacity="0.3" stroke-width="1"/>
    <text x="-290" y="5" fill="#ff8a9e">Invoices</text>

    <!-- Receipts -->
    <rect x="-220" y="-16" width="100" height="32" rx="16" fill="#e94560" fill-opacity="0.15" stroke="#e94560" stroke-opacity="0.3" stroke-width="1"/>
    <text x="-170" y="5" fill="#ff8a9e">Receipts</text>

    <!-- Proforma -->
    <rect x="-100" y="-16" width="104" height="32" rx="16" fill="#e94560" fill-opacity="0.15" stroke="#e94560" stroke-opacity="0.3" stroke-width="1"/>
    <text x="-48" y="5" fill="#ff8a9e">Proforma</text>

    <!-- PDF -->
    <rect x="24" y="-16" width="110" height="32" rx="16" fill="#e94560" fill-opacity="0.15" stroke="#e94560" stroke-opacity="0.3" stroke-width="1"/>
    <text x="79" y="5" fill="#ff8a9e">PDF Export</text>

    <!-- NAV -->
    <rect x="154" y="-16" width="120" height="32" rx="16" fill="#e94560" fill-opacity="0.15" stroke="#e94560" stroke-opacity="0.3" stroke-width="1"/>
    <text x="214" y="5" fill="#ff8a9e">NAV Query</text>
  </g>

  <!-- Bottom bar -->
  <rect x="0" y="630" width="1280" height="10" fill="url(#accent)"/>

  <!-- NETipar branding -->
  <g transform="translate(577.5, 434) scale(0.5)" opacity="0.35">
    <style type="text/css">
	.st0{fill:#FFFFFF;}
	.st1{fill:url(#SVGID_1_);}
	.st2{fill:url(#SVGID_00000040547220835408906520000011399420650640004259_);}
	.st3{fill-rule:evenodd;clip-rule:evenodd;fill:#FFFFFF;}
</style>
<path class="st0" d="M173.1,20.6v7c0.6,0,1.3,0,1.9-0.1c0.6,0,1.3-0.3,1.8-0.7c0.3-0.4,0.6-0.8,0.7-1.3c0.2-1.1,0.2-2.2,0-3.3
	c-0.1-0.3-0.2-0.6-0.3-0.8c-0.2-0.2-0.4-0.4-0.6-0.6c-0.4-0.1-0.7-0.2-1.1-0.2c-0.4,0-0.9,0-1.4,0L173.1,20.6z M209.2,20.6v6.8h2.2
	c0.4,0,0.8-0.1,1.1-0.3c0.3-0.2,0.6-0.5,0.8-0.8c0.3-0.7,0.5-1.5,0.5-2.4c0-1.6-0.3-2.6-1.1-3C211.6,20.6,210.4,20.4,209.2,20.6z
	 M209.2,32.4v6.9c0.5-0.6,1.1-1,1.8-1.3c0.7-0.3,1.5-0.4,2.2-0.3h0.4c0-0.9,0-1.7-0.1-2.4c0-0.7-0.2-1.4-0.6-2.1
	c-0.2-0.3-0.4-0.5-0.7-0.6c-0.3-0.2-0.6-0.2-0.9-0.2L209.2,32.4z M101.4,42.3l4.1-0.4l-4.6-14L101.4,42.3z M193.4,40.5
	c0.1-0.4,0.4-0.8,0.8-1c0.2-0.2,0.4-0.3,0.7-0.4l-0.7-4.8c0.7,0.1,1.4,1.1,2,2.3c0-2.9,0-4.3-1.9-4.4c0.7-9.3-1.8-11.9-2-12.1
	c-0.2,0.2-2.7,2.8-2,12.1c-1.9,0.2-2,1.6-1.9,4.4c0.4-0.9,1-1.7,1.8-2.3l-0.8,5.6c0.1,0.1,0.2,0.3,0.3,0.4L193.4,40.5z M250,49.3
	c-4-0.9-8.7-1.7-14.1-2.4h-0.2l-0.2-0.1c-2-0.7-4.2-0.7-6.2-0.2c3-2.6,4.7-5.1,0-4.5c0.1-0.4,0-0.8-0.1-1.2s-0.3-0.7-0.5-1.1
	c-0.2-0.3-0.6-0.6-0.9-0.7c-0.4-0.2-0.7-0.3-1.1-0.3c-1.9-0.4-5.3,0.4-4.9,3.6c-0.5-0.6-1.2-0.9-2-1.1c1.2,0.7,1.8,1.8,0.2,3
	c0.8,0.3,1.5,0.6,2.2,1.1c-1.8-0.3-3.7-0.1-5.4,0.6c1.8-2.3,2.8-4.3-0.9-3.3c-0.1-0.7-0.5-1.2-1-1.6c-0.5-0.4-1.2-0.6-1.9-0.5
	c-1.6,0-4.2,1-3.3,3.2c-1.7-0.9-2.3-0.5-2.7-0.1c-0.2,0.4-0.2,0.8-0.1,1.2s0.4,0.8,0.8,1c-0.9-0.2-1.7-0.6-2.4-1.1
	c-0.7-0.5-1.3-1.2-1.8-2c-0.4,0.1-0.9,0.3-1.3,0.6c1.1-2,1.7-3.6-0.7-2.6c0-0.2-0.1-0.4-0.2-0.6s-0.2-0.4-0.4-0.5
	c-0.2-0.1-0.4-0.2-0.6-0.3c-0.2-0.1-0.4-0.1-0.7,0c-0.3,0-0.7,0.1-1,0.2s-0.6,0.4-0.8,0.6c-0.2,0.3-0.3,0.6-0.4,0.9
	c-0.1,0.3,0,0.7,0.1,1c-1.1-0.6-1.5-0.3-1.7,0.1c-0.1,0.3-0.1,0.6,0,1c0.1,0.3,0.3,0.6,0.5,0.8c-0.4-0.1-0.8-0.3-1.1-0.5
	c-2.2-0.1-4.5-0.2-6.8-0.3c-0.6,0.4-1.2,0.7-1.9,0.8c0.3-0.2,0.5-0.4,0.6-0.8c0.1-0.3,0.1-0.6,0-1c-0.2-0.4-0.6-0.7-1.7-0.2
	c0.1-0.3,0.2-0.6,0.2-1c0-0.3-0.1-0.7-0.3-1c-0.2-0.3-0.4-0.5-0.7-0.7c-0.3-0.2-0.6-0.3-1-0.3c-0.2,0-0.4-0.1-0.7,0
	c-0.2,0-0.4,0.1-0.6,0.3c-0.2,0.1-0.3,0.3-0.5,0.5c-0.1,0.2-0.2,0.4-0.2,0.6c-2.2-1.2-1.8,0.5-0.9,2.6c-0.4-0.3-0.8-0.5-1.2-0.7
	c-0.5,0.7-1.2,1.3-2,1.8c-0.8,0.5-1.6,0.8-2.5,0.9c0.4-0.2,0.7-0.5,0.8-0.9c0.2-0.4,0.2-0.8,0-1.3c-0.4-0.4-1-0.9-2.7-0.1
	c1.1-2.2-1.4-3.4-3-3.5c-0.6-0.1-1.3,0-1.8,0.3c-0.6,0.3-1,0.9-1.1,1.5c-3.6-1.3-2.8,0.8-1.2,3.2c-1.6-0.9-3.5-1.3-5.4-1.1
	c0.7-0.4,1.5-0.6,2.3-0.9c-1.5-1.3-0.8-2.4,0.5-3c-0.6-0.5-1.6-0.7-3.6,0.5c1-3.4-2.8-4.8-5.1-4.7c-1.6,0.1-3.4,0.6-3.7,3.2
	c-5.3-1.4-3.7,1.6-0.8,4.9c-2.3-1-4.8-1.2-7.2-0.8l-0.8,0.3c-32.8,0.8-60.5,3.5-75.8,7.2c4.5-2.5,14-4.8,26.9-6.5
	c0.6-0.2,1.1-0.7,1.4-1.2c0.3-0.6,0.5-1.2,0.4-1.8V15.6h6.7l5,15.5l-0.5-15.5h6.1v25.6l3.3-0.2V15.6h14.9v5.6h-8.3v5.1h8.1v5.6h-8.1
	v6h8.9v2.3c1.9-0.1,3.9-0.2,5.8-0.2V21.2h-5.1v-5.6H149v5.6h-5.3v18.5h0.6c-1.6-2.3,1.9-4.3,5.3-4.2c-0.4-1.2-1.3-4.1,4.5-4.5
	c1.2-0.1,2.5,0.1,3.7,0.5V15.7h6.5v17.8c0.8,0.1,1.6,0.3,2.3,0.7V15.6h7.7c1.4,0,2.8,0.1,4.2,0.4c1.4,0.2,2.7,0.9,3.7,1.9
	c0.7,0.8,1.2,1.8,1.4,2.8c0.2,1.1,0.4,2.1,0.3,3.2c0,1.5-0.2,3-0.7,4.5c-0.3,0.7-0.6,1.4-1.2,1.9c-0.5,0.6-1.1,1-1.8,1.3
	c-1.1,0.5-2.4,0.8-3.6,0.8l-3.7,0.1v4.6c0.4,0.3,0.7,0.6,1,1c0.3,0.4,0.4,0.9,0.5,1.3c0,0,1.2-1.8,4.1-0.1c0.3-0.3,0.8-0.6,1.2-0.7
	s1-0.1,1.4,0c0-0.7-0.1-2.2,2.3-2l4.6-21.2h7.9l4.7,21.5c0.2,0,0.5,0.1,0.7,0.3c0.2,0.1,0.4,0.3,0.5,0.5c0.1,0.2,0.2,0.4,0.2,0.7
	s0,0.5-0.1,0.7c0.2,0,0.5,0,0.7,0V15.6h9.5c2.7,0,4.7,0.6,6,1.8c1.3,1.2,2,3.2,2,5.9c0.1,1.3-0.2,2.6-0.7,3.8
	c-0.6,1.1-1.5,2-2.7,2.5c0.9,0.2,1.6,0.7,2.3,1.3c0.6,0.6,0.9,1.5,1,2.4c0.1,0.8,0.1,1.7,0.1,2.9v0.3c0.3,0.1,0.6,0.3,0.8,0.6
	s0.4,0.6,0.5,0.9c0.6-1.2,1.5-2.1,2.7-2.6s2.5-0.6,3.7-0.2c4.8,1.1,3.6,3.6,3.1,4.6c3.2,0.4,6.1,3.2,3,5.1
	C241.1,46.1,246.6,47.6,250,49.3L250,49.3z"/>
<linearGradient id="SVGID_1_" gradientUnits="userSpaceOnUse" x1="90.6416" y1="9.1768" x2="225.0309" y2="9.1768" gradientTransform="matrix(1 0 0 -1 0 66)">
	<stop  offset="0" style="stop-color:#5BB86F"/>
	<stop  offset="1" style="stop-color:#0CAED6"/>
</linearGradient>
<path class="st1" d="M220.3,53.7h0.7c0,0,0.1,0,0.1,0c0,0,0.1,0,0.1,0c0,0,0,0.1,0,0.1c0,0,0,0.1,0,0.1v0.4c0.2-0.2,0.5-0.4,0.8-0.5
	c0.4-0.2,0.9-0.3,1.3-0.3c0.2,0,0.5,0,0.7,0.1s0.4,0.2,0.6,0.4c0.1,0.1,0.3,0.3,0.3,0.5c0.1,0.2,0.1,0.4,0.1,0.6v4.5
	c0,0.1,0,0.1-0.1,0.2c0,0-0.1,0-0.1,0c0,0-0.1,0-0.1,0h-0.7c0,0-0.1,0-0.1,0c0,0-0.1,0-0.1,0c0,0,0-0.1,0-0.1c0,0,0-0.1,0-0.1v-4.2
	c0-0.2-0.1-0.4-0.2-0.6c-0.2-0.2-0.5-0.2-0.7-0.2c-0.4,0-0.7,0.1-1,0.2c-0.2,0.1-0.5,0.2-0.7,0.4v4.4c0,0,0,0.1,0,0.1
	c0,0,0,0.1,0,0.1c0,0,0,0-0.1,0c0,0-0.1,0-0.1,0h-0.7c0,0-0.1,0-0.1,0c0,0-0.1,0-0.1-0.1c0,0,0-0.1,0-0.1c0,0,0-0.1,0-0.1V54
	c0,0,0-0.1,0-0.1c0,0,0-0.1,0-0.1C220.1,53.8,220.1,53.8,220.3,53.7C220.2,53.7,220.2,53.7,220.3,53.7z M90.9,53.7h0.7
	c0,0,0.1,0,0.1,0c0,0,0.1,0,0.1,0c0,0,0,0.1,0,0.1c0,0,0,0.1,0,0.1v0.4c0.2-0.2,0.5-0.3,0.8-0.5c0.4-0.2,0.8-0.3,1.3-0.3
	c0.2,0,0.5,0,0.7,0.1c0.2,0.1,0.4,0.2,0.6,0.4c0.3,0.3,0.4,0.8,0.4,1.2v3c0,0.5-0.1,0.9-0.4,1.2c-0.2,0.2-0.4,0.3-0.6,0.4
	c-0.2,0.1-0.5,0.1-0.7,0.1c-0.4,0-0.9-0.1-1.3-0.2c-0.3-0.1-0.5-0.3-0.8-0.5v3c0,0.1,0,0.1,0,0.2c-0.1,0-0.1,0-0.2,0h-0.7
	c-0.1,0-0.1,0-0.2,0c0-0.1,0-0.1,0-0.2V54c0,0,0-0.1,0-0.1c0,0,0-0.1,0-0.1C90.7,53.8,90.8,53.8,90.9,53.7
	C90.8,53.7,90.9,53.7,90.9,53.7L90.9,53.7z M94.5,58.2v-2.6c0-0.2-0.1-0.4-0.2-0.6c-0.1-0.1-0.2-0.2-0.3-0.2c-0.1,0-0.3-0.1-0.4,0
	c-0.4,0-0.7,0.1-1.1,0.2c-0.2,0.1-0.4,0.2-0.7,0.4v3c0.2,0.2,0.4,0.3,0.7,0.4c0.3,0.2,0.7,0.2,1.1,0.2c0.1,0,0.3,0,0.4,0
	c0.1,0,0.2-0.1,0.3-0.2C94.4,58.6,94.4,58.4,94.5,58.2L94.5,58.2z M97.3,55.5v-0.2c0-0.2,0-0.5,0.1-0.7c0.1-0.2,0.2-0.4,0.4-0.5
	c0.5-0.4,1.2-0.5,1.8-0.5c0.7-0.1,1.3,0.1,1.8,0.5c0.2,0.1,0.3,0.3,0.4,0.5c0.1,0.2,0.1,0.4,0.1,0.7v4.4c0,0.1,0,0.1,0,0.2
	c0,0-0.1,0-0.1,0c0,0-0.1,0-0.1,0h-0.7c0,0-0.1,0-0.1,0c0,0-0.1,0-0.1,0c0,0,0-0.1,0-0.1c0,0,0-0.1,0-0.1v-0.4
	c-0.2,0.2-0.5,0.3-0.8,0.5C99.8,60,99.4,60.1,99,60c-0.5,0-1-0.1-1.3-0.5c-0.1-0.1-0.3-0.3-0.3-0.5c-0.1-0.2-0.1-0.4-0.1-0.6v-0.6
	c0-0.2,0-0.4,0.1-0.6c0.1-0.2,0.2-0.3,0.3-0.5c0.4-0.3,0.8-0.5,1.3-0.5h2v-1c0-0.1,0-0.2-0.1-0.3c0-0.1-0.1-0.2-0.2-0.3
	c-0.3-0.2-0.6-0.3-1-0.2c-0.3,0-0.7,0-1,0.2c-0.1,0.1-0.2,0.2-0.2,0.3c0,0.1-0.1,0.2-0.1,0.3c0,0.2,0,0.2-0.1,0.3c0,0-0.1,0-0.1,0
	c0,0-0.1,0-0.1,0h-0.7c0,0-0.1,0-0.1,0c0,0-0.1,0-0.1,0C97.3,55.7,97.3,55.6,97.3,55.5C97.2,55.6,97.2,55.6,97.3,55.5L97.3,55.5z
	 M99.2,59.1c0.3,0,0.7-0.1,1-0.2c0.2-0.1,0.5-0.2,0.7-0.4v-1.1h-1.7c-0.2,0-0.5,0-0.7,0.2c-0.1,0.2-0.2,0.4-0.2,0.6v0.3
	c0,0.1,0,0.2,0,0.3c0,0.1,0.1,0.2,0.2,0.2c0.2,0.1,0.4,0.2,0.6,0.2H99.2z M106.9,53.6c0.1,0,0.1,0,0.2,0c0,0,0,0.1,0.1,0.1
	c0,0,0,0.1,0,0.1v0.6c0,0,0,0.1,0,0.1c0,0,0,0.1-0.1,0.1c-0.1,0-0.1,0.1-0.2,0.1c-0.4,0-0.8,0.1-1.2,0.3c-0.3,0.1-0.5,0.3-0.7,0.5
	v4.2c0,0.1,0,0.1-0.1,0.2c0,0,0,0-0.1,0c0,0-0.1,0-0.1,0H104c0,0-0.1,0-0.1,0c0,0-0.1,0-0.1-0.1c0,0,0-0.1-0.1-0.1c0,0,0-0.1,0-0.1
	V54c0-0.1,0-0.1,0-0.2c0,0,0.1,0,0.1,0c0,0,0.1,0,0.1,0h0.7c0,0,0.1,0,0.1,0c0,0,0.1,0,0.1,0c0,0,0,0.1,0,0.1c0,0,0,0.1,0,0.1v0.5
	c0.2-0.2,0.5-0.4,0.8-0.6c0.4-0.2,0.8-0.3,1.2-0.3H106.9z M109.8,53.8h1.3c0.1,0,0.1,0,0.2,0c0,0,0,0.1,0,0.1c0,0,0,0.1,0,0.1v0.5
	c0,0,0,0.1,0,0.1c0,0,0,0.1,0,0.1c0,0-0.1,0-0.1,0c0,0-0.1,0-0.1,0h-1.4v3.4c0,0.1,0,0.2,0.1,0.3c0,0.1,0.1,0.2,0.2,0.3
	c0.3,0.2,0.6,0.2,1,0.2h0.2c0,0,0.1,0,0.1,0c0,0,0.1,0,0.1,0c0,0.1,0.1,0.1,0.1,0.2v0.5c0,0,0,0.1,0,0.1c0,0,0,0.1,0,0.1
	c-0.1,0-0.1,0.1-0.2,0h-0.4c-0.6,0.1-1.3-0.1-1.8-0.4c-0.2-0.2-0.3-0.4-0.4-0.6c-0.1-0.2-0.1-0.5-0.1-0.7v-3.5h-0.7c0,0-0.1,0-0.1,0
	c0,0-0.1,0-0.1,0c0-0.1-0.1-0.1,0-0.2v-0.4c0-0.1,0-0.1,0-0.2c0.1,0,0.1-0.1,0.2-0.1h0.6l0.1-1.3c0-0.1,0-0.1,0.1-0.2
	c0,0,0.1,0,0.1,0c0,0,0.1,0,0.1,0h0.7c0,0,0.1,0,0.1,0c0,0,0.1,0,0.1,0c0,0.1,0,0.1,0,0.2L109.8,53.8z M112.9,53.8h0.7
	c0,0,0.1,0,0.1,0s0.1,0,0.1,0c0,0.1,0.1,0.1,0.1,0.2v0.4c0.2-0.2,0.5-0.4,0.8-0.5c0.4-0.2,0.8-0.3,1.3-0.3c0.2,0,0.5,0,0.7,0.1
	c0.2,0.1,0.4,0.2,0.6,0.4c0.1,0.2,0.3,0.3,0.3,0.5c0.1,0.2,0.1,0.4,0.1,0.6v4.5c0,0,0,0.1,0,0.1s0,0.1,0,0.1c0,0,0,0-0.1,0
	c0,0-0.1,0-0.1,0h-0.7c0,0-0.1,0-0.1,0c0,0-0.1,0-0.1,0c0,0,0-0.1,0-0.1c0,0,0-0.1,0-0.1v-4.2c0-0.2-0.1-0.4-0.2-0.6
	c-0.1-0.1-0.2-0.1-0.3-0.2c-0.1,0-0.3-0.1-0.4,0c-0.4,0-0.7,0.1-1.1,0.2c-0.2,0.1-0.5,0.2-0.7,0.4v4.4c0,0,0,0.1,0,0.1
	c0,0,0,0.1,0,0.1c0,0,0,0-0.1,0c0,0-0.1,0-0.1,0h-0.7c0,0-0.1,0-0.1,0c0,0-0.1,0-0.1,0c0-0.1-0.1-0.1,0-0.2V54c0-0.1,0-0.1,0-0.2
	c0,0,0,0,0.1-0.1L112.9,53.8z M124.1,55.4v1.5c0,0.1,0,0.1,0,0.2c0,0,0,0-0.1,0c0,0-0.1,0-0.1,0h-3.4v1.2c0,0.1,0,0.2,0.1,0.3
	c0,0.1,0.1,0.2,0.2,0.3c0.3,0.1,0.6,0.2,1,0.2c0.3,0,0.7-0.1,1-0.2c0.1-0.1,0.2-0.2,0.2-0.3c0-0.1,0.1-0.2,0.1-0.3v-0.1
	c0,0,0-0.1,0-0.1c0,0,0-0.1,0-0.1c0,0,0.1,0,0.1-0.1c0,0,0.1,0,0.1,0h0.6c0,0,0.1,0,0.1,0c0,0,0.1,0,0.1,0c0,0,0,0.1,0,0.1
	c0,0,0,0.1,0,0.1v0.2c0,0.2,0,0.5-0.1,0.7c-0.1,0.2-0.2,0.4-0.4,0.6c-0.6,0.3-1.2,0.5-1.9,0.5c-0.7,0-1.3-0.2-1.9-0.5
	c-0.2-0.2-0.3-0.3-0.4-0.6c-0.1-0.2-0.1-0.5-0.1-0.7v-3c0-0.2,0-0.5,0.1-0.7c0.1-0.2,0.2-0.4,0.4-0.6c0.6-0.4,1.2-0.5,1.9-0.5
	c0.7-0.1,1.3,0.1,1.8,0.5c0.1,0.2,0.3,0.4,0.3,0.6c0.1,0.2,0.1,0.4,0.1,0.7L124.1,55.4z M120.5,55.5v0.8h2.5v-0.8
	c0-0.1,0-0.2-0.1-0.3c0-0.1-0.1-0.2-0.2-0.3c-0.3-0.2-0.6-0.2-1-0.2c-0.3,0-0.7,0.1-1,0.2c-0.1,0.1-0.2,0.1-0.3,0.2
	s-0.1,0.2-0.1,0.3L120.5,55.5z M128.8,53.7c0.1,0,0.1,0,0.2,0c0,0,0,0.1,0.1,0.1c0,0,0,0.1,0,0.1v0.6c0,0,0,0.1,0,0.1
	c0,0,0,0.1-0.1,0.1c-0.1,0-0.1,0.1-0.2,0.1c-0.4,0-0.8,0.1-1.2,0.3c-0.3,0.1-0.5,0.3-0.7,0.5v4.2c0,0,0,0.1,0,0.1c0,0,0,0.1,0,0.1
	c0,0,0,0-0.1,0c0,0-0.1,0-0.1,0h-0.7c0,0-0.1,0-0.1,0c0,0-0.1,0-0.1,0c0-0.1,0-0.1,0-0.2V54c0-0.1,0-0.1,0-0.2c0,0,0.1,0,0.1,0
	s0.1,0,0.1,0h0.5c0,0,0.1,0,0.1,0c0,0,0.1,0,0.1,0c0,0.1,0,0.1,0,0.2v0.5c0.2-0.2,0.5-0.4,0.8-0.6c0.4-0.2,0.8-0.3,1.3-0.3
	L128.8,53.7z M132.7,55.5v-0.2c0-0.2,0-0.5,0.1-0.7s0.2-0.4,0.4-0.5c0.5-0.4,1.2-0.5,1.8-0.5c0.7-0.1,1.3,0.1,1.9,0.5
	c0.2,0.1,0.3,0.3,0.4,0.6c0.1,0.2,0.1,0.4,0.1,0.7v4.4c0,0,0,0.1,0,0.1c0,0,0,0.1,0,0.1c0,0,0,0-0.1,0c0,0-0.1,0-0.1,0h-0.7
	c0,0-0.1,0-0.1,0c0,0-0.1,0-0.1,0c0-0.1-0.1-0.1-0.1-0.2v-0.4c-0.2,0.2-0.5,0.3-0.8,0.5c-0.4,0.2-0.8,0.3-1.2,0.2
	c-0.5,0-1-0.1-1.3-0.5c-0.1-0.1-0.3-0.3-0.3-0.5c-0.1-0.2-0.1-0.4-0.1-0.6v-0.6c0-0.2,0-0.4,0.1-0.6c0.1-0.2,0.2-0.3,0.3-0.5
	c0.2-0.2,0.4-0.3,0.6-0.4c0.2-0.1,0.5-0.1,0.7-0.1h2v-1c0-0.1,0-0.2,0-0.3c0-0.1-0.1-0.2-0.2-0.3c-0.3-0.2-0.6-0.3-1-0.2
	c-0.3,0-0.7,0-1,0.2c-0.1,0.1-0.2,0.2-0.2,0.3c0,0.1-0.1,0.2-0.1,0.3c0,0.1,0,0.2,0,0.3c0,0-0.1,0-0.1,0s-0.1,0-0.1,0H133
	c0,0-0.1,0-0.1,0c0,0-0.1,0-0.1,0c-0.1,0-0.2-0.1-0.2-0.2L132.7,55.5z M134.7,59.1c0.3,0,0.7-0.1,1-0.2c0.2-0.1,0.4-0.2,0.6-0.4
	v-1.1h-1.7c-0.1,0-0.2,0-0.3,0c-0.1,0-0.2,0.1-0.3,0.2c-0.1,0.1-0.1,0.2-0.1,0.3c0,0.1,0,0.2,0,0.3v0.3c0,0.1,0,0.2,0,0.3
	s0.1,0.2,0.2,0.2c0.2,0.1,0.4,0.2,0.6,0.2L134.7,59.1z M139.2,53.8h3.8c0.1,0,0.1,0,0.2,0c0,0.1,0.1,0.1,0,0.2v0.5
	c0,0.1,0,0.1,0,0.2l-3,4.3h3c0.1,0,0.1,0,0.2,0c0,0.1,0,0.1,0,0.2v0.5c0,0.1,0,0.1,0,0.2c-0.1,0-0.1,0.1-0.2,0h-4.2
	c-0.1,0-0.1,0-0.2,0c0,0,0-0.1,0-0.1c0,0,0-0.1,0-0.1v-0.5v-0.2l3-4.3h-2.5c0,0-0.1,0-0.1,0c0,0-0.1,0-0.1-0.1c0,0,0-0.1-0.1-0.1
	c0,0,0-0.1,0-0.1V54c0,0,0-0.1,0-0.1c0,0,0-0.1,0-0.1c0,0,0-0.1,0.1-0.1L139.2,53.8z M147.4,58.4v-3c0-0.2,0-0.5,0.1-0.7
	c0.1-0.2,0.3-0.4,0.5-0.6c0.6-0.3,1.2-0.5,1.9-0.5c0.7,0,1.3,0.2,1.9,0.5c0.2,0.1,0.4,0.3,0.5,0.6c0.1,0.2,0.2,0.5,0.1,0.7v3
	c0,0.2,0,0.5-0.1,0.7c-0.1,0.2-0.3,0.4-0.5,0.5c-0.6,0.3-1.2,0.5-1.9,0.5s-1.3-0.2-1.9-0.5c-0.2-0.1-0.4-0.3-0.5-0.5
	c-0.1-0.2-0.2-0.5-0.2-0.7L147.4,58.4z M151.1,58.3v-2.8c0-0.1,0-0.2-0.1-0.4c-0.1-0.1-0.1-0.2-0.2-0.3c-0.3-0.2-0.6-0.2-1-0.2
	c-0.3,0-0.7,0.1-1,0.2c-0.1,0.1-0.2,0.2-0.2,0.3c-0.1,0.1-0.1,0.2-0.1,0.4v2.8c0,0.1,0,0.2,0.1,0.4c0.1,0.1,0.1,0.2,0.2,0.3
	c0.3,0.2,0.6,0.2,1,0.2c0.3,0,0.7-0.1,1-0.2c0.1-0.1,0.2-0.2,0.2-0.3C151.1,58.5,151.1,58.4,151.1,58.3z M154.2,53.8h0.7
	c0,0,0.1,0,0.1,0c0,0,0.1,0,0.1,0c0,0.1,0.1,0.1,0.1,0.2v0.4c0.2-0.2,0.5-0.4,0.8-0.5c0.4-0.2,0.9-0.3,1.3-0.3c0.2,0,0.5,0,0.7,0.1
	c0.2,0.1,0.4,0.2,0.6,0.4c0.1,0.1,0.3,0.3,0.3,0.5c0.1,0.2,0.1,0.4,0.1,0.6v4.5c0,0.1,0,0.1,0,0.2c0,0-0.1,0-0.1,0c0,0-0.1,0-0.1,0
	H158c0,0-0.1,0-0.1,0c0,0-0.1,0-0.1,0c0,0,0-0.1,0-0.1c0,0,0-0.1,0-0.1v-4.2c0-0.1,0-0.2,0-0.3c0-0.1-0.1-0.2-0.2-0.3
	c-0.1-0.1-0.2-0.1-0.3-0.2c-0.1,0-0.3-0.1-0.4,0c-0.4,0-0.7,0.1-1.1,0.2c-0.2,0.1-0.4,0.2-0.7,0.4v4.4c0,0.1,0,0.1,0,0.2
	c0,0-0.1,0-0.1,0c0,0-0.1,0-0.1,0h-0.7c0,0-0.1,0-0.1,0c0,0-0.1,0-0.1,0c0,0,0-0.1,0-0.1c0,0,0-0.1,0-0.1V54c0,0,0-0.1,0-0.1
	c0,0,0-0.1,0-0.1C154,53.8,154.1,53.7,154.2,53.8L154.2,53.8z M161.9,51.5v8.3c0,0.1,0,0.1,0,0.2c0,0-0.1,0-0.1,0c0,0-0.1,0-0.1,0
	h-0.7c0,0-0.1,0-0.1,0c0,0-0.1,0-0.1-0.1c0,0,0-0.1-0.1-0.1c0,0,0-0.1,0-0.1v-8.3c0,0,0-0.1,0-0.1c0,0,0-0.1,0-0.1
	c0,0,0.1,0,0.1-0.1c0,0,0.1,0,0.1,0h0.7c0,0,0.1,0,0.1,0c0,0,0.1,0,0.1,0.1C161.9,51.3,161.9,51.4,161.9,51.5L161.9,51.5z M164.9,54
	v5.7c0,0,0,0.1,0,0.1c0,0,0,0.1,0,0.1c0,0,0,0-0.1,0c0,0-0.1,0-0.1,0h-0.7c0,0-0.1,0-0.1,0c0,0-0.1,0-0.1,0c0-0.1-0.1-0.1,0-0.2V54
	c0-0.1,0-0.1,0-0.2c0,0,0.1,0,0.1,0c0,0,0.1,0,0.1,0h0.7c0,0,0.1,0,0.1,0c0,0,0.1,0,0.1,0C164.8,53.9,164.8,53.9,164.9,54L164.9,54z
	 M164.9,51.5v1.1c0,0,0,0.1,0,0.1c0,0,0,0.1,0,0.1c0,0,0,0-0.1,0c0,0-0.1,0-0.1,0h-0.7c0,0-0.1,0-0.1,0c0,0-0.1,0-0.1,0
	c0-0.1-0.1-0.1,0-0.2v-1.2c0-0.1,0-0.1,0-0.2c0,0,0.1,0,0.1,0c0,0,0.1,0,0.1,0h0.7c0,0,0.1,0,0.1,0c0,0,0.1,0,0.1,0c0,0,0,0.1,0,0.1
	S164.8,51.4,164.9,51.5L164.9,51.5z M166.9,53.8h0.7c0,0,0.1,0,0.1,0c0,0,0.1,0,0.1,0c0,0.1,0.1,0.1,0.1,0.2v0.4
	c0.2-0.2,0.5-0.4,0.8-0.5c0.4-0.2,0.9-0.3,1.3-0.3c0.2,0,0.5,0,0.7,0.1c0.2,0.1,0.4,0.2,0.6,0.4c0.2,0.1,0.3,0.3,0.3,0.5
	c0.1,0.2,0.1,0.4,0.1,0.6v4.5c0,0.1,0,0.1,0,0.2c0,0-0.1,0-0.1,0c0,0-0.1,0-0.1,0h-0.7c0,0-0.1,0-0.1,0c0,0-0.1,0-0.1,0
	c0,0,0-0.1,0-0.1c0,0,0-0.1,0-0.1v-4.2c0-0.1,0-0.2,0-0.3c0-0.1-0.1-0.2-0.2-0.3c-0.1-0.1-0.2-0.1-0.3-0.2c-0.1,0-0.3-0.1-0.4,0
	c-0.4,0-0.7,0.1-1,0.2c-0.2,0.1-0.5,0.2-0.7,0.4v4.4c0,0.1,0,0.1,0,0.2c0,0-0.1,0-0.1,0c0,0-0.1,0-0.1,0h-0.7c0,0-0.1,0-0.1,0
	c0,0-0.1,0-0.1-0.1c0,0,0-0.1-0.1-0.1c0,0,0-0.1,0-0.1V54c0,0,0-0.1,0-0.1c0,0,0-0.1,0-0.1C166.8,53.8,166.8,53.8,166.9,53.8
	L166.9,53.8z M178,55.4v1.5c0,0.1,0,0.1,0,0.2c0,0,0,0-0.1,0c0,0-0.1,0-0.1,0h-3.4v1.2c0,0.1,0,0.2,0,0.3s0.1,0.2,0.2,0.3
	c0.3,0.1,0.6,0.2,1,0.2s0.7-0.1,1-0.2c0.1-0.1,0.2-0.2,0.2-0.3s0.1-0.2,0.1-0.3v-0.1c0,0,0-0.1,0-0.1c0,0,0-0.1,0-0.1
	c0,0,0.1,0,0.1,0c0,0,0.1,0,0.1,0h0.7c0,0,0.1,0,0.1,0c0,0,0.1,0,0.1,0c0,0,0,0.1,0,0.1c0,0,0,0.1,0,0.1v0.2c0,0.2,0,0.5-0.1,0.7
	c-0.1,0.2-0.2,0.4-0.4,0.6c-0.6,0.3-1.2,0.5-1.9,0.5c-0.7,0-1.3-0.2-1.9-0.5c-0.2-0.2-0.3-0.3-0.4-0.6c-0.1-0.2-0.1-0.5-0.1-0.7v-3
	c0-0.2,0-0.5,0.1-0.7c0.1-0.2,0.2-0.4,0.4-0.6c0.6-0.4,1.2-0.5,1.9-0.5c0.6-0.1,1.3,0.1,1.8,0.5c0.2,0.2,0.3,0.3,0.4,0.6
	C178,54.9,178,55.1,178,55.4L178,55.4z M174.4,55.5v0.8h2.5v-0.8c0-0.1,0-0.2-0.1-0.3c0-0.1-0.1-0.2-0.2-0.3c-0.3-0.2-0.6-0.2-1-0.2
	c-0.3,0-0.7,0.1-1,0.2c-0.1,0.1-0.2,0.2-0.2,0.3C174.4,55.2,174.4,55.3,174.4,55.5L174.4,55.5z M184.6,60h-0.8c-0.1,0-0.1,0-0.2,0
	c0-0.1-0.1-0.1-0.1-0.2l-2-5.7c0,0,0-0.1,0-0.1c0,0,0-0.1,0-0.1c0.1,0,0.1-0.1,0.2-0.1h0.8c0,0,0.1,0,0.1,0c0,0,0.1,0,0.1,0.1
	c0,0.1,0.1,0.1,0.1,0.2l1.2,3.6c0.1,0.2,0.1,0.4,0.1,0.6l0,0.4l0.1-0.4c0-0.2,0.1-0.4,0.1-0.5l1.3-3.6c0-0.1,0-0.1,0.1-0.2
	c0,0,0.1,0,0.1-0.1c0,0,0.1,0,0.1,0h0.7c0.1,0,0.1,0,0.2,0.1c0,0,0,0.1,0,0.1c0,0,0,0.1,0,0.1l-2,5.7
	C184.7,59.8,184.7,59.9,184.6,60C184.6,60,184.6,60,184.6,60L184.6,60z M189.1,54v5.7c0,0.1,0,0.1,0,0.2c0,0-0.1,0-0.1,0
	c0,0-0.1,0-0.1,0h-0.7c0,0-0.1,0-0.1,0c0,0-0.1,0-0.1-0.1c0,0,0-0.1-0.1-0.1c0,0,0-0.1,0-0.1V54c0,0,0-0.1,0-0.1c0,0,0-0.1,0.1-0.1
	c0,0,0.1,0,0.1-0.1c0,0,0.1,0,0.1,0h0.7c0,0,0.1,0,0.1,0c0,0,0.1,0,0.1,0C189.1,53.9,189.1,53.9,189.1,54L189.1,54z M189.1,51.5v1.1
	c0,0.1,0,0.1,0,0.2c0,0-0.1,0-0.1,0c0,0-0.1,0-0.1,0h-0.7c0,0-0.1,0-0.1,0c0,0-0.1,0-0.1,0c0-0.1-0.1-0.1-0.1-0.2v-1.2
	c0,0,0-0.1,0-0.1c0,0,0-0.1,0.1-0.1c0,0,0.1,0,0.1-0.1c0,0,0.1,0,0.1,0h0.7c0,0,0.1,0,0.1,0c0,0,0.1,0,0.1,0
	C189.1,51.3,189.1,51.4,189.1,51.5L189.1,51.5z M192,51.5v8.3c0,0.1,0,0.1,0,0.2c0,0-0.1,0-0.1,0s-0.1,0-0.1,0h-0.7c0,0-0.1,0-0.1,0
	c0,0-0.1,0-0.1,0c0,0,0-0.1,0-0.1c0,0,0-0.1,0-0.1v-8.3c0,0,0-0.1,0-0.1c0,0,0-0.1,0-0.1c0,0,0.1-0.1,0.2-0.1h0.7c0,0,0.1,0,0.1,0
	c0,0,0.1,0,0.1,0.1C192,51.3,192.1,51.4,192,51.5L192,51.5z M193.8,55.6v-0.2c0-0.2,0-0.5,0.1-0.7c0.1-0.2,0.2-0.4,0.4-0.5
	c0.5-0.4,1.2-0.5,1.8-0.5c0.7-0.1,1.3,0.1,1.8,0.5c0.2,0.1,0.3,0.3,0.4,0.5c0.1,0.2,0.1,0.4,0.1,0.7v4.4c0,0.1,0,0.1-0.1,0.2
	c0,0-0.1,0-0.1,0c0,0-0.1,0-0.1,0h-0.7c0,0-0.1,0-0.1,0c0,0-0.1,0-0.1,0c0,0,0-0.1,0-0.1c0,0,0-0.1,0-0.1v-0.4
	c-0.2,0.2-0.5,0.3-0.8,0.5c-0.4,0.2-0.8,0.3-1.2,0.2c-0.5,0-1-0.1-1.3-0.5c-0.1-0.1-0.3-0.3-0.3-0.5c-0.1-0.2-0.1-0.4-0.1-0.6v-0.6
	c0-0.2,0-0.4,0.1-0.6c0.1-0.2,0.2-0.3,0.3-0.5c0.4-0.3,0.8-0.5,1.3-0.5h2v-1c0-0.1,0-0.2,0-0.3c0-0.1-0.1-0.2-0.2-0.3
	c-0.3-0.2-0.6-0.3-1-0.2c-0.3,0-0.7,0-1,0.2c-0.1,0.1-0.2,0.2-0.2,0.3c0,0.1-0.1,0.2-0.1,0.3c0,0.2,0,0.2,0,0.3c0,0-0.1,0-0.1,0
	s-0.1,0-0.1,0h-0.7c0,0-0.1,0-0.1,0c0,0-0.1,0-0.1,0C193.9,55.6,193.8,55.6,193.8,55.6L193.8,55.6z M195.7,59.1c0.3,0,0.7-0.1,1-0.2
	c0.2-0.1,0.5-0.2,0.7-0.4v-1.1h-1.7c-0.2,0-0.5,0-0.7,0.2c-0.1,0.2-0.2,0.4-0.2,0.6v0.3c0,0.1,0,0.2,0,0.3c0,0.1,0.1,0.2,0.2,0.2
	C195.2,59,195.5,59.1,195.7,59.1L195.7,59.1z M197.4,51.4l-1,1.4c-0.2,0.1-0.2,0.1-0.3,0.1h-0.6c-0.1,0-0.1,0-0.2,0c0,0,0-0.1,0-0.1
	s0-0.1,0-0.1l0.7-1.3c0-0.1,0.1-0.1,0.1-0.2c0.1,0,0.1-0.1,0.2-0.1h0.8c0.1,0,0.1,0,0.2,0.1C197.4,51.3,197.5,51.2,197.4,51.4z
	 M201.9,60.1c-0.2,0-0.5,0-0.7-0.1c-0.2-0.1-0.4-0.2-0.6-0.4c-0.3-0.3-0.4-0.8-0.4-1.2v-3.1c0-0.5,0.1-0.9,0.4-1.2
	c0.2-0.2,0.4-0.3,0.6-0.4s0.5-0.1,0.7-0.1c0.4,0,0.9,0.1,1.3,0.3c0.3,0.1,0.5,0.3,0.8,0.5V54c0,0,0-0.1,0-0.1c0,0,0-0.1,0-0.1
	c0,0,0.1,0,0.1,0c0,0,0.1,0,0.1,0h0.7c0,0,0.1,0,0.1,0c0,0,0.1,0,0.1,0.1c0,0,0,0.1,0,0.1c0,0,0,0.1,0,0.1v6.8c0,0.2,0,0.5-0.1,0.7
	c-0.1,0.2-0.3,0.4-0.4,0.6c-0.6,0.4-1.2,0.5-1.9,0.5h-1.7c0,0-0.1,0-0.1,0c0,0-0.1,0-0.1,0c0,0,0-0.1,0-0.1c0,0,0-0.1,0-0.1v-0.5
	c0,0,0-0.1,0-0.1s0-0.1,0-0.1c0,0,0.1,0,0.1,0c0,0,0.1,0,0.1,0h1.7c0.3,0,0.7-0.1,1-0.2c0.1-0.1,0.2-0.2,0.2-0.3
	c0.1-0.1,0.1-0.2,0.1-0.3v-1.3c-0.2,0.2-0.5,0.3-0.8,0.5C202.7,60,202.3,60.1,201.9,60.1L201.9,60.1z M201.3,55.6v2.6
	c0,0.2,0.1,0.4,0.2,0.6c0.1,0.1,0.2,0.2,0.3,0.2c0.1,0,0.3,0.1,0.4,0c0.4,0,0.7-0.1,1-0.2c0.2-0.1,0.5-0.2,0.7-0.4v-3
	c-0.2-0.2-0.4-0.3-0.7-0.4c-0.3-0.2-0.7-0.2-1-0.2c-0.1,0-0.3,0-0.4,0c-0.1,0-0.2,0.1-0.3,0.2C201.4,55.2,201.3,55.3,201.3,55.6
	L201.3,55.6z M207.8,60h-0.7c0,0-0.1,0-0.1,0c0,0-0.1,0-0.1-0.1c0,0,0-0.1,0-0.1c0,0,0-0.1,0-0.1v-8.3c0,0,0-0.1,0-0.1
	c0,0,0-0.1,0-0.1c0,0,0.1,0,0.1-0.1c0,0,0.1,0,0.1,0h0.7c0,0,0.1,0,0.1,0c0,0,0.1,0,0.1,0c0,0.1,0.1,0.1,0.1,0.2v3
	c0.2-0.2,0.5-0.3,0.8-0.5c0.4-0.2,0.8-0.3,1.3-0.2c0.2,0,0.5,0,0.7,0.1c0.2,0.1,0.4,0.2,0.6,0.4c0.3,0.3,0.4,0.8,0.4,1.2v3
	c0,0.5-0.1,0.9-0.4,1.2c-0.2,0.2-0.4,0.3-0.6,0.4c-0.2,0.1-0.5,0.1-0.7,0.1c-0.4,0-0.9-0.1-1.3-0.3c-0.3-0.1-0.5-0.3-0.8-0.5v0.4
	c0,0,0,0.1,0,0.1c0,0,0,0.1,0,0.1c0,0-0.1,0-0.1,0C207.9,60,207.9,60,207.8,60L207.8,60z M210.8,58.2v-2.7c0-0.2-0.1-0.4-0.2-0.6
	c-0.1-0.1-0.2-0.2-0.3-0.2c-0.1,0-0.3-0.1-0.4,0c-0.4,0-0.7,0.1-1.1,0.2c-0.2,0.1-0.4,0.2-0.7,0.4v3c0.2,0.2,0.4,0.3,0.7,0.4
	c0.3,0.2,0.7,0.2,1.1,0.2c0.1,0,0.3,0,0.4,0c0.1,0,0.2-0.1,0.3-0.2C210.7,58.6,210.8,58.4,210.8,58.2L210.8,58.2z M213.6,55.6v-0.3
	c0-0.2,0-0.5,0.1-0.7c0.1-0.2,0.2-0.4,0.4-0.5c0.5-0.4,1.2-0.5,1.8-0.5c0.6-0.1,1.3,0.1,1.8,0.5c0.2,0.2,0.3,0.3,0.4,0.6
	c0.1,0.2,0.1,0.4,0.1,0.7v4.4c0,0.1,0,0.1-0.1,0.2c0,0-0.1,0-0.1,0c0,0-0.1,0-0.1,0h-0.7c0,0-0.1,0-0.1,0c0,0-0.1,0-0.1,0
	c0-0.1-0.1-0.1-0.1-0.2v-0.4c-0.2,0.2-0.5,0.3-0.8,0.5c-0.4,0.2-0.8,0.3-1.2,0.2c-0.5,0-1-0.1-1.3-0.5c-0.1-0.1-0.3-0.3-0.3-0.5
	c-0.1-0.2-0.1-0.4-0.1-0.6v-0.6c0-0.2,0-0.4,0.1-0.6c0.1-0.2,0.2-0.3,0.3-0.5c0.4-0.3,0.8-0.5,1.3-0.5h2v-1c0-0.1,0-0.2-0.1-0.3
	c0-0.1-0.1-0.2-0.2-0.3c-0.3-0.2-0.6-0.3-1-0.2c-0.3,0-0.7,0-1,0.2c-0.1,0.1-0.2,0.2-0.2,0.3c0,0.1-0.1,0.2-0.1,0.3
	c0,0.2,0,0.2-0.1,0.3c0,0-0.1,0-0.1,0s-0.1,0-0.1,0h-0.7c0,0-0.1,0-0.1,0c0,0-0.1,0-0.1,0C213.6,55.6,213.6,55.6,213.6,55.6
	L213.6,55.6z M215.5,59.1c0.3,0,0.7-0.1,1-0.2c0.2-0.1,0.5-0.2,0.7-0.4v-1.1h-1.7c-0.2,0-0.5,0-0.7,0.2c-0.1,0.2-0.2,0.4-0.2,0.6
	v0.3c0,0.1,0,0.2,0,0.3c0,0.1,0.1,0.2,0.2,0.2C215,59,215.2,59.1,215.5,59.1L215.5,59.1z"/>
<linearGradient id="SVGID_00000104683451885585760400000008211609729259046533_" gradientUnits="userSpaceOnUse" x1="8.8042" y1="40.4067" x2="56.1657" y2="40.4067" gradientTransform="matrix(1 0 0 -1 0 66)">
	<stop  offset="0" style="stop-color:#5BB86F"/>
	<stop  offset="1" style="stop-color:#0CAED6"/>
</linearGradient>
<path style="fill:url(#SVGID_00000104683451885585760400000008211609729259046533_);" d="M38.7,20.4c-2.7-0.2-5.3,0.3-7.7,1.6
	c-2.3,1.3-4.3,3.2-5.6,5.5c-1.3,2.3-1.8,5-1.6,7.7c0.2,2.7,1.2,5.2,2.8,7.3c-3.4,1.5-6.5,2.8-9.4,3.8c-0.4-0.6-0.8-1.3-1.1-2
	L12,44.6c-0.2,0-0.4,0-0.6-0.1c-0.2-0.1-0.3-0.3-0.4-0.5l-2.2-8.6c0-0.2,0-0.4,0.1-0.6c0.1-0.2,0.3-0.3,0.5-0.4l4.3-1.8
	c0.1-2,0.5-4.1,1.1-6L11.4,24c-0.1-0.1-0.2-0.1-0.2-0.2c-0.1-0.1-0.1-0.2-0.1-0.3c0-0.1,0-0.2,0-0.3c0-0.1,0.1-0.2,0.1-0.3l4.4-7.7
	c0.1-0.2,0.3-0.3,0.5-0.4c0.2-0.1,0.4,0,0.6,0.1l4.6,1.8c1.6-1.5,3.5-2.8,5.5-3.8l-0.5-4.6c0-0.2,0-0.4,0.1-0.6
	c0.1-0.2,0.3-0.3,0.5-0.4L35.6,5c0.2,0,0.4,0,0.6,0.1s0.3,0.3,0.4,0.5l2,4.9c2,0.1,4,0.5,5.9,1.1l3.2-3.9c0.1-0.2,0.3-0.3,0.5-0.4
	c0.2-0.1,0.4,0,0.6,0.1l7.4,4.5c-4,3.1-8.3,6.9-8.3,6.9c-0.2-0.4-0.4-0.8-0.7-1.1c-0.3-0.3-0.7-0.5-1.1-0.7
	c-0.4-0.2-0.8-0.2-1.3-0.2c-0.4,0-0.9,0.1-1.3,0.3C41.7,17.9,40.1,19,38.7,20.4z"/>
<g>
	<path class="st3" d="M0.3,54.6c-1.2-2,1.7-6.4,7.3-11.9c-2.7,3.3-3.9,5.8-3.1,7.2c1.8,3,13.6-0.7,26.7-7.8c1.4,0.1,1.6,0.7,3.1,0.7
		C16.9,53,2.4,58.2,0.3,54.6z"/>
	<path class="st0" d="M60.8,42.1l2.8,2.2c0.1,0.1,0.2,0.1,0.2,0.2c0.1,0.1,0.1,0.2,0.1,0.3c0,0.1,0,0.2,0,0.3c0,0.1-0.1,0.2-0.1,0.3
		l-4.4,7.7c-0.1,0.2-0.3,0.3-0.5,0.4c-0.2,0.1-0.4,0-0.6-0.1l-4.8-1.9c-1.6,1.5-3.4,2.8-5.3,3.9l0.5,4.6c0,0.2,0,0.4-0.1,0.6
		c-0.1,0.2-0.3,0.3-0.5,0.4l-8.6,2.2c-0.2,0-0.4,0-0.6-0.1c-0.2-0.1-0.3-0.3-0.4-0.5l-1.8-4.4c-2.2-0.1-4.3-0.4-6.4-1.1l-2.8,3.4
		c-0.1,0.2-0.3,0.3-0.5,0.4c-0.2,0.1-0.4,0-0.6-0.1l-7.6-4.6c-0.1-0.1-0.2-0.1-0.2-0.2c-0.1-0.1-0.1-0.2-0.1-0.3c0-0.1,0-0.2,0-0.3
		c0-0.1,0.1-0.2,0.1-0.3l1.8-4.2c-0.4-0.4-0.7-0.8-1.1-1.2c3-1.2,6.1-2.6,9.5-4.2c1.4,1.2,2.9,2.1,4.7,2.7c1.7,0.6,3.5,0.8,5.3,0.7
		c1.8-0.1,3.6-0.6,5.2-1.4c1.6-0.8,3.1-1.9,4.3-3.3c0.5,0,0.9-0.1,1.4-0.2c2.3,0.7,4.8,0.7,7.1,0.1C58.1,43.5,59.5,42.9,60.8,42.1z"
		/>
	<path class="st0" d="M30.5,39.7C30.5,39.6,30.6,39.6,30.5,39.7c0.1-0.1,0.1-0.1,0.2-0.2c0,0,0.1,0,0.1,0c0,0,0.1,0,0.1,0
		c0.1,0,0.1,0.1,0.1,0.2c0,0.1,0,0.1,0,0.2c0,0.1-0.1,0.1-0.2,0.2c-0.1,0-0.1,0-0.2,0c0,0-0.1,0-0.1-0.1c0,0-0.1-0.1-0.1-0.1
		c0,0,0-0.1,0-0.1C30.5,39.7,30.5,39.7,30.5,39.7z M32,34.4c0.1-0.1,0.1-0.2,0.2-0.3c0.1-0.1,0.2-0.1,0.3-0.1c0.1,0,0.2,0,0.3,0.1
		c0.1,0.1,0.2,0.2,0.2,0.3c0,0.1,0.1,0.2,0,0.4c0,0.1-0.1,0.2-0.2,0.3c-0.1,0.1-0.2,0.1-0.3,0.2c-0.1,0-0.2,0-0.4,0
		c-0.1,0-0.1-0.1-0.2-0.1C32.1,35.1,32,35,32,34.9c0-0.1,0-0.2,0-0.2S32,34.5,32,34.4z M31.9,45.2c0-0.1,0.1-0.2,0.2-0.2
		c0.1-0.1,0.1-0.1,0.2-0.1c0.1,0,0.2-0.1,0.3,0c0.1,0,0.2,0,0.3,0.1c0.1,0.1,0.2,0.2,0.3,0.3s0.1,0.3,0.1,0.4c0,0.1,0,0.3-0.1,0.4
		c-0.1,0.1-0.2,0.2-0.3,0.3c-0.1,0.1-0.3,0.1-0.4,0S32.1,46,32,45.9c-0.1-0.1-0.2-0.2-0.2-0.4C31.8,45.4,31.8,45.3,31.9,45.2z
		 M37.8,34.1l-0.5,0.1c-1.2,0.1-2.4,1.9-2.7,2.7c-0.1,0.2-0.1,0.5-0.1,0.7c0,0.2,0.1,0.5,0.1,0.7c0,0.6-0.2,1.2-0.6,1.7
		c-0.4,0.5,1.4,0.3,1.7,0.3c0.6,0,1.2,0,1.7-0.2c0.5-0.2,1-0.5,1.4-0.9c0.1-0.1,0.2-0.3,0.3-0.4c-2.7,0.2-2.9-0.9-0.8-2.8
		C38.1,35.4,37.9,34.8,37.8,34.1L37.8,34.1z M37.8,37.9c0.2,0.6,0-0.4,3.7-2.6c3-1.9,5-2.2,4.9-2.5c-1-2.4-6.1,2.4-7.1,3.3
		C38.7,36.6,38.3,37.2,37.8,37.9L37.8,37.9z M66.5,23.4c-0.5,0.3-0.9,0.6-1.2,1c-0.3,0.4-0.6,0.9-0.7,1.4c-0.1,0.5-0.2,1-0.1,1.6
		c0.1,0.5,0.2,1,0.5,1.5c0.3,0.5,0.7,0.9,1.2,1.2c0.5,0.3,1,0.5,1.6,0.6c0.7,0.1,1.4-0.4,0.5-0.9c-1.4-0.7-2.4-2.9-0.2-3.6
		c2.2-0.7,2.3,0.8,3.4,0.2c0.3-0.2,0.5-0.5,0.6-0.8c0.1-0.3,0.1-0.7-0.1-1c-0.6-0.8-1.5-1.4-2.6-1.6C68.4,22.6,67.4,22.8,66.5,23.4
		L66.5,23.4z M49.7,28c0.7-1.1,4.5,0.7,3.4,2.9s-2.7,2.8-2.1,3.5c0.6,0.7,6.7-1.6,12.1-3.9c-0.2-0.2-0.4-0.5-0.6-0.8
		c-0.8-1.5-1-3.2-0.6-4.8c0.4-1.6,1.4-3,2.9-3.9c3.4-2,7.8-0.8,9.5,1.9c0.4,0.5,0.6,1,0.8,1.5c1.3-0.7,2.3-1.7,3-3
		c1.3-2.1,1.3-3-0.3-4c-1.6-1-3.3-1.2-2.9-3.1s1-4.7-1.8-5.5c-2.8-0.9-7.9,2.7-12.3,5.5S46.9,23.8,44,27.5c-1.7,2.2-2.5,3.3-2.1,3.9
		c0.7,0.9,3.1-0.5,3.7-1.6C46.2,31.7,50.4,31.4,49.7,28L49.7,28z M63.4,29.7c0,0.1,0,0.2,0.1,0.2c0.1,0.1,0.1,0.1,0.2,0.1
		c0.1,0,0.2,0,0.2-0.1c0.1,0,0.1-0.1,0.1-0.2c0-0.1,0-0.2-0.1-0.2c-0.1-0.1-0.1-0.1-0.2-0.1c-0.1,0-0.2,0-0.2,0.1
		C63.5,29.6,63.4,29.6,63.4,29.7z M62.7,26.8c0,0.1,0,0.2,0.1,0.2s0.1,0.1,0.2,0.1c0,0,0.1,0,0.1,0s0.1,0,0.1-0.1
		c0,0,0.1-0.1,0.1-0.1c0,0,0-0.1,0-0.1c0,0,0-0.1,0-0.1c0,0,0-0.1-0.1-0.1c0,0-0.1-0.1-0.1-0.1c0,0-0.1,0-0.1,0
		c-0.1,0-0.2,0-0.2,0.1C62.8,26.6,62.7,26.7,62.7,26.8z M63.6,24.2c0,0,0,0.1,0,0.1c0,0,0,0.1,0.1,0.1c0,0,0.1,0.1,0.1,0.1
		c0,0,0.1,0,0.1,0c0.1,0,0.2,0,0.2-0.1c0.1-0.1,0.1-0.1,0.1-0.2c0-0.1,0-0.2-0.1-0.2c-0.1-0.1-0.1-0.1-0.2-0.1c-0.1,0-0.2,0-0.2,0.1
		C63.6,24,63.6,24.1,63.6,24.2z M65.5,22.4c0,0.1,0,0.2,0.1,0.2c0.1,0.1,0.1,0.1,0.2,0.1c0.1,0,0.2,0,0.2-0.1s0.1-0.1,0.1-0.2
		c0,0,0-0.1,0-0.1c0,0,0-0.1-0.1-0.1c0,0-0.1-0.1-0.1-0.1c0,0-0.1,0-0.1,0c0,0-0.1,0-0.1,0s-0.1,0-0.1,0.1c0,0-0.1,0.1-0.1,0.1
		C65.5,22.3,65.5,22.3,65.5,22.4z M68.2,21.7c0,0.1,0,0.2,0.1,0.2c0.1,0.1,0.1,0.1,0.2,0.1c0.1,0,0.2,0,0.2-0.1
		c0.1-0.1,0.1-0.1,0.1-0.2c0,0,0-0.1,0-0.1c0,0,0-0.1-0.1-0.1c0,0-0.1-0.1-0.1-0.1c0,0-0.1,0-0.1,0c-0.1,0-0.2,0-0.2,0.1
		C68.2,21.6,68.2,21.6,68.2,21.7z M70.9,22.3c0,0.1,0,0.2,0.1,0.2c0.1,0.1,0.1,0.1,0.2,0.1c0.1,0,0.2,0,0.2-0.1
		c0.1,0,0.1-0.1,0.1-0.2c0-0.1,0-0.2-0.1-0.2c-0.1-0.1-0.1-0.1-0.2-0.1c-0.1,0-0.2,0-0.2,0.1C70.9,22.2,70.9,22.3,70.9,22.3z
		 M72.8,23.7c0,0.1,0,0.2,0.1,0.2C73,24,73.1,24,73.1,24c0,0,0.1,0,0.1,0c0,0,0.1,0,0.1-0.1c0,0,0.1-0.1,0.1-0.1c0,0,0-0.1,0-0.1
		c0-0.1,0-0.2-0.1-0.2c-0.1-0.1-0.1-0.1-0.2-0.1c-0.1,0-0.2,0-0.2,0.1C72.9,23.5,72.9,23.6,72.8,23.7z M36.2,28.6
		c2-2.4,7.4-10,10.1-8.3c0.4,0.3,1.2-0.5-0.2-1.2c-1.7-0.8-4.2,1.5-6.8,4.8C36.6,27.3,35.8,29,36.2,28.6z M94.7,6.2
		C94.8,6,95,5.8,95.1,5.6c0.2-0.2,0.4-0.4,0.6-0.5C96,5,96.3,4.9,96.5,4.9c0.3,0,0.5,0,0.8,0.1c0.3,0.1,0.5,0.2,0.7,0.4
		c0.2,0.2,0.4,0.4,0.5,0.6c0.1,0.2,0.2,0.5,0.2,0.8c0,0.3,0,0.5-0.1,0.8c-0.1,0.3-0.2,0.5-0.4,0.7s-0.4,0.4-0.6,0.5
		c-0.2,0.1-0.5,0.2-0.8,0.2c-0.3,0-0.5,0-0.8-0.1c-0.1-0.1-0.3-0.1-0.4-0.2c-1.4,1-2.9,1.9-4.4,2.6c-2.6,1.1-3.4-1.9-4.1,0
		c-1.1,2.6,2.5,1.1,2.2,3.3c-0.6,4.2-4.9,14.4-19.2,20.1c-4.5,1.8-9.1,3.2-13.8,4.3l2.9-0.4c0,0,2.6,1.6-0.3,4
		c-3.9,3-13,1.8-15.2,1.3c-2.3-0.5-3.1-0.8-2.2-1.2c0.9-0.4,3.7,0.3,6.3-1c1.1-0.6,0.6-1.4-0.1-1.6c-1,0.1-2,0.1-3,0
		c-0.7-0.1-1.3-0.2-2-0.3c-0.2,0.5-0.6,1-1,1.4c-1.8,1.7-6.7,1.5-9.6,0.2c0.8-0.4,1.4-1,1.7-1.7c-0.3,0.1-0.6,0-0.9-0.1
		c0.5-0.6,1.1-2,2.1-4.8c0.2-0.6,0.7-1.1,1.2-1.4c0.5-0.3,1.2-0.5,1.8-0.4c0.2-1.1,0.6-2.1,1.2-3c0.3-0.5,0.7-1,1-1.4
		c0-0.6-0.4-1.2-1.3-0.7c-2.5,1.4-3.5,4.1-4.3,4.7c-0.8,0.5-0.6-0.4,0.2-2.5c0.8-2.1,5.1-10.3,9.9-11.7c3-0.9,3.3,2.2,3.3,2.2
		l-2,2.1c6-5.3,12.3-10.6,18.7-14.3C74,2.6,79.9,6.9,80.7,7.6c1.1,1,0.4,1.5,0.2,3.6c-0.3,2,1.1,3.9,3,3.6c1.9-0.3,1.6-0.9,0.7-2.1
		s-1.3-2.6,0-3.5c1.3-0.9,4.4,0.3,5.6,0.8c0.9,0.4,3.5-1,4.9-1.8c-0.2-0.3-0.3-0.6-0.4-0.9C94.6,6.9,94.6,6.5,94.7,6.2z"/>
	<path class="st0" d="M98.1,2.3c0.5,0,1.1,0.2,1.6,0.4c0.5,0.2,0.9,0.6,1.3,1c0.4,0.4,0.6,0.9,0.8,1.4c0.2,0.5,0.2,1.1,0.2,1.6
		c0,0.1,0,0.1-0.1,0.2c0,0.1-0.1,0.1-0.1,0.2c0,0-0.1,0.1-0.2,0.1c-0.1,0-0.1,0-0.2,0c-0.1,0-0.1,0-0.2-0.1c-0.1,0-0.1-0.1-0.2-0.1
		c0,0-0.1-0.1-0.1-0.2c0-0.1,0-0.1,0-0.2c0-0.4,0-0.8-0.2-1.2c-0.1-0.4-0.3-0.8-0.6-1.1c-0.3-0.3-0.6-0.6-1-0.7
		c-0.4-0.2-0.8-0.3-1.2-0.3c-0.1,0-0.1,0-0.2,0c-0.1,0-0.1-0.1-0.2-0.1c0,0-0.1-0.1-0.1-0.2c0-0.1,0-0.1,0-0.2c0-0.1,0-0.1,0.1-0.2
		c0-0.1,0.1-0.1,0.1-0.2c0.1,0,0.1-0.1,0.2-0.1C97.9,2.3,98,2.3,98.1,2.3z"/>
	<path class="st0" d="M99.2,0c0.8,0.1,1.6,0.3,2.3,0.6c0.7,0.4,1.4,0.9,1.9,1.5c0.5,0.6,0.9,1.3,1.2,2.1c0.3,0.8,0.4,1.6,0.3,2.4
		c0,0.1,0,0.1-0.1,0.2c0,0.1-0.1,0.1-0.1,0.2c0,0-0.1,0.1-0.2,0.1c-0.1,0-0.1,0-0.2,0s-0.1,0-0.2-0.1c-0.1,0-0.1-0.1-0.2-0.1
		c0,0-0.1-0.1-0.1-0.2c0-0.1,0-0.1,0-0.2c0.1-1.4-0.4-2.7-1.3-3.8c-0.9-1-2.2-1.7-3.6-1.8C99,1,99,1,98.9,0.9
		c-0.1,0-0.1-0.1-0.2-0.1c0,0-0.1-0.1-0.1-0.2c0-0.1,0-0.1,0-0.2c0-0.1,0-0.1,0.1-0.2c0-0.1,0.1-0.1,0.1-0.2c0,0,0.1-0.1,0.2-0.1
		C99,0,99.1,0,99.2,0z"/>
</g>
  </g>
</svg>
